<svg xmlns="http://www.w3.org/2000/svg" aria-hidden="true">
  <symbol id="icon-system" viewBox="0 0 24 24" fill="none" stroke-width="2" stroke-linecap="round" stroke-linejoin="round">
    <rect x="2" y="3" width="20" height="14" rx="2" />
    <line x1="8" y1="21" x2="16" y2="21" />
    <line x1="12" y1="17" x2="12" y2="21" />
  </symbol>
  <symbol id="icon-light" viewBox="0 0 24 24" fill="none" stroke-width="2" stroke-linecap="round" stroke-linejoin="round">
    <circle cx="12" cy="12" r="4" />
    <line x1="12" y1="2" x2="12" y2="5" />
    <line x1="12" y1="19" x2="12" y2="22" />
    <line x1="2" y1="12" x2="5" y2="12" />
    <line x1="19" y1="12" x2="22" y2="12" />
    <line x1="4.93" y1="4.93" x2="7.05" y2="7.05" />
    <line x1="16.95" y1="16.95" x2="19.07" y2="19.07" />
    <line x1="4.93" y1="19.07" x2="7.05" y2="16.95" />
    <line x1="16.95" y1="7.05" x2="19.07" y2="4.93" />
  </symbol>
  <symbol id="icon-dark" viewBox="0 0 24 24">
    <path d="M21 12.79A9 9 0 1 1 11.21 3 7 7 0 0 0 21 12.79z" />
  </symbol>
</svg>
